<?xml version="1.0" standalone="no"?>
<!DOCTYPE svg PUBLIC "-//W3C//DTD SVG 20010904//EN"
 "http://www.w3.org/TR/2001/REC-SVG-20010904/DTD/svg10.dtd">
<svg version="1.0" xmlns="http://www.w3.org/2000/svg"
 width="300.000000pt" height="300.000000pt" viewBox="0 0 300.000000 300.000000"
 preserveAspectRatio="xMidYMid meet">
<metadata>
Created by potrace 1.11, written by Peter Selinger 2001-2013
</metadata>
<g transform="translate(0.000000,300.000000) scale(0.100000,-0.100000)"
fill="#000000" stroke="none">
<path d="M1330 2980 c0 -7 -7 -10 -15 -6 -8 3 -15 0 -15 -7 0 -8 -4 -6 -10 3
-6 10 -10 11 -10 3 0 -7 -5 -13 -11 -13 -5 0 -7 6 -4 13 4 6 1 5 -7 -4 -7 -9
-21 -15 -30 -13 -10 1 -18 -2 -18 -8 0 -6 -7 -7 -16 -4 -8 3 -12 2 -9 -4 3 -6
-5 -10 -18 -10 -14 0 -28 -7 -31 -16 -3 -8 -10 -12 -16 -9 -6 3 -13 -1 -16 -9
-3 -9 -10 -13 -15 -10 -5 3 -9 0 -9 -6 0 -6 -3 -10 -7 -8 -5 2 -20 -9 -35 -24
-15 -15 -24 -28 -20 -28 4 -1 -6 -8 -23 -16 -16 -8 -21 -12 -10 -9 18 6 18 5
-3 -15 -13 -12 -27 -18 -35 -14 -7 5 -7 1 2 -10 13 -15 12 -18 -7 -23 -12 -3
-22 -10 -22 -15 0 -5 6 -6 13 -2 7 5 6 0 -3 -11 -8 -10 -13 -20 -12 -22 2 -3
0 -8 -4 -11 -4 -4 -4 -1 1 7 5 10 4 12 -4 7 -6 -4 -11 -13 -10 -19 3 -26 -2
-38 -13 -31 -7 4 -8 3 -4 -4 4 -7 4 -18 -1 -24 -4 -7 -8 -20 -8 -28 0 -8 -4
-21 -9 -29 -7 -10 -5 -12 5 -7 8 4 5 0 -5 -8 -13 -10 -15 -16 -7 -16 11 0 11
-3 0 -17 -12 -15 -12 -16 1 -8 12 7 13 6 3 -7 -7 -8 -10 -18 -6 -21 3 -4 -1
-7 -9 -7 -9 0 -19 -7 -22 -16 -4 -9 -9 -14 -12 -11 -4 3 -13 -1 -21 -9 -8 -8
-18 -12 -23 -9 -4 3 -10 -2 -14 -10 -3 -8 -12 -15 -20 -15 -9 0 -20 -9 -26
-21 -7 -11 -14 -18 -17 -16 -6 6 -39 -21 -110 -89 -29 -28 -55 -49 -58 -46 -3
3 -5 1 -5 -5 0 -5 -20 -31 -45 -57 -25 -27 -45 -53 -45 -58 0 -6 -8 -17 -18
-24 -9 -7 -17 -18 -17 -26 -1 -7 -7 -12 -14 -10 -7 1 -10 -2 -7 -7 3 -5 -2
-19 -12 -32 -10 -13 -24 -37 -32 -54 -8 -16 -19 -33 -24 -36 -5 -4 -8 -18 -8
-32 0 -15 -5 -25 -10 -24 -6 1 -12 -8 -14 -21 -2 -12 -11 -39 -21 -60 -9 -20
-17 -51 -17 -69 -1 -20 -5 -28 -11 -23 -6 5 -10 -8 -11 -37 -1 -26 -7 -49 -15
-54 -11 -7 -11 -9 -1 -9 8 0 10 -5 5 -12 -4 -7 -8 -26 -8 -43 0 -16 -4 -35 -8
-41 -3 -6 -3 -14 0 -18 11 -10 3 -79 -10 -94 -8 -10 -7 -16 2 -21 8 -6 13 -36
14 -92 0 -46 6 -87 12 -91 6 -5 5 -11 -5 -18 -10 -6 -11 -10 -2 -10 6 0 12 -9
12 -21 0 -11 5 -30 11 -41 9 -16 8 -19 -3 -12 -10 6 -9 2 2 -16 8 -14 15 -34
15 -45 -1 -11 3 -23 8 -26 4 -3 10 -19 13 -34 3 -16 10 -35 16 -42 6 -7 7 -13
2 -13 -5 0 -2 -6 6 -13 8 -7 16 -21 18 -32 2 -11 16 -39 33 -63 16 -24 25 -41
19 -37 -5 3 -10 2 -10 -3 0 -6 7 -12 15 -16 8 -3 15 -12 15 -21 0 -8 3 -15 8
-15 10 0 58 -72 54 -83 -1 -5 1 -6 5 -4 5 3 14 -1 21 -9 7 -8 11 -14 8 -14 -3
0 34 -38 80 -85 47 -47 88 -85 91 -85 3 0 14 -10 24 -22 11 -11 19 -18 19 -14
0 4 10 -3 22 -14 13 -12 37 -29 53 -37 17 -9 32 -19 35 -22 11 -15 188 -96
203 -93 4 1 7 -2 7 -6 0 -9 4 -10 51 -15 14 -2 31 -7 39 -12 7 -4 23 -9 34
-11 52 -8 91 -16 113 -25 14 -5 23 -5 23 1 0 6 10 6 26 0 34 -13 47 -13 38 3
-5 8 -2 7 9 -2 10 -8 20 -11 24 -8 3 4 13 1 21 -6 13 -9 14 -9 8 1 -8 13 6 17
18 5 10 -11 37 -12 30 -2 -6 11 46 6 65 -6 10 -5 12 -4 7 3 -4 7 -1 12 9 12
10 0 13 -5 9 -12 -5 -8 -2 -8 10 1 9 8 37 14 62 15 24 0 44 4 44 8 0 5 4 7 8
4 8 -5 80 9 112 22 18 7 18 6 57 16 18 4 51 17 75 29 24 11 47 20 52 18 5 -1
12 2 15 7 6 10 81 50 94 50 5 0 16 9 25 20 19 21 69 42 58 23 -4 -6 -2 -11 3
-11 6 0 10 -3 10 -7 -1 -5 0 -11 1 -15 1 -5 3 -11 5 -15 11 -43 102 -142 122
-136 6 2 17 -2 25 -10 7 -8 22 -13 33 -11 11 2 26 -3 34 -9 8 -7 12 -7 8 -1
-4 7 9 11 36 12 63 2 77 4 77 14 0 5 4 7 8 4 5 -3 19 4 30 15 12 11 22 16 22
12 0 -4 12 8 28 27 15 19 34 41 42 50 8 9 16 22 17 30 1 8 6 30 12 48 7 23 7
32 -2 33 -7 0 -3 4 8 9 l20 9 -20 0 c-17 1 -17 3 -5 11 13 9 13 10 0 11 -10 0
-8 3 5 9 13 6 15 9 5 9 -20 1 -22 141 -2 141 10 0 9 5 -4 17 -15 16 -15 17 2
24 11 4 14 8 7 8 -6 1 -13 24 -15 56 -2 44 0 55 12 55 11 0 12 2 3 8 -8 5 -13
55 -15 160 -3 130 -1 152 12 152 10 0 11 3 3 8 -6 4 -13 39 -15 80 -2 59 0 72
12 72 10 0 11 3 3 8 -6 4 -13 39 -15 80 -2 59 0 72 12 72 13 0 13 1 0 10 -8 5
-11 12 -8 16 4 4 2 16 -4 27 -9 17 -8 19 8 13 16 -5 17 -4 4 6 -10 9 -15 30
-14 60 0 27 -3 48 -7 48 -4 0 -6 8 -4 18 1 9 0 21 -3 27 -3 5 -6 21 -7 35 -1
14 -4 32 -8 40 -3 8 -9 28 -11 44 -3 16 -9 32 -13 35 -4 3 -10 17 -12 31 -1
14 -7 28 -13 31 -5 3 -9 9 -8 13 4 13 -41 106 -51 106 -6 0 -7 5 -4 10 6 9
-48 96 -70 112 -5 4 -7 8 -3 8 7 0 -17 32 -49 65 -7 7 -9 15 -6 19 4 3 -1 6
-10 6 -10 0 -17 5 -17 10 0 14 -116 130 -130 130 -6 0 -8 5 -5 10 3 6 1 10 -5
10 -12 0 -32 15 -58 43 -9 9 -22 17 -29 17 -7 0 -18 9 -25 20 -7 11 -21 20
-30 20 -10 0 -18 5 -18 10 0 6 -7 10 -15 10 -8 0 -15 4 -15 10 0 5 -7 6 -17 3
-10 -4 -14 -2 -10 4 4 6 -4 14 -18 17 -14 4 -25 11 -25 16 0 6 -7 10 -16 10
-10 0 -14 6 -11 14 3 7 0 19 -6 26 -9 10 -9 11 2 5 10 -5 12 -4 7 4 -4 6 -10
24 -12 38 -3 15 -9 30 -13 33 -5 3 -7 13 -6 22 2 9 -3 22 -10 28 -8 6 -17 25
-20 41 -4 16 -11 29 -16 29 -6 0 -7 5 -4 10 3 6 0 10 -8 10 -7 0 -19 12 -25
26 -7 14 -17 22 -22 19 -6 -4 -10 -3 -9 2 3 19 -2 33 -11 33 -6 0 -21 11 -34
25 -13 13 -26 22 -29 18 -4 -3 -7 -1 -7 6 0 7 -13 17 -30 22 -16 6 -30 15 -30
20 0 5 -12 9 -26 9 -14 0 -23 4 -19 10 4 6 -8 10 -29 10 -20 0 -36 4 -36 8 0
10 -2 10 -103 16 -42 3 -82 8 -87 11 -6 3 -10 1 -10 -5z m88 -306 c6 -1 12 2
12 7 0 6 5 7 10 4 6 -4 7 -12 3 -18 -4 -7 0 -6 10 2 15 12 17 11 17 -5 0 -16
2 -17 10 -4 6 10 10 11 10 3 0 -7 3 -12 8 -11 13 4 53 -23 47 -33 -4 -5 1 -9
9 -9 8 0 18 -5 22 -11 5 -8 -4 -10 -30 -7 -21 2 -36 0 -36 -7 0 -5 -7 -1 -15
9 -8 11 -15 14 -15 8 0 -16 -42 -15 -59 1 -11 10 -13 10 -7 0 5 -10 -12 -13
-71 -14 -107 -2 -116 -3 -130 -12 -22 -14 -14 0 21 37 18 20 36 33 40 29 3 -3
6 2 6 13 0 14 2 16 9 5 6 -10 10 -10 16 -1 4 6 13 9 21 6 8 -3 14 -1 14 5 0 6
7 9 15 6 8 -4 17 -2 20 4 4 5 12 6 18 2 7 -4 18 -8 25 -9z m72 -609 c0 -5 5
-3 10 5 5 8 10 10 10 4 0 -7 13 -10 30 -8 17 2 30 -1 30 -7 0 -6 9 -9 20 -6
26 7 40 -18 33 -57 -5 -23 -3 -27 8 -21 11 7 12 6 4 -6 -12 -16 -13 -168 -1
-187 4 -6 3 -12 -2 -12 -4 0 -8 -88 -8 -195 1 -124 -3 -195 -9 -195 -5 0 -4
-4 3 -9 8 -4 14 -12 14 -16 0 -4 -6 -12 -14 -16 -9 -6 -10 -9 -1 -9 9 0 10 -7
2 -27 -5 -14 -7 -33 -5 -40 3 -8 2 -11 -3 -8 -5 3 -12 -3 -15 -12 -15 -46 -96
-113 -129 -106 -16 3 -18 2 -9 -5 11 -7 9 -10 -6 -14 -11 -3 -25 -1 -31 5 -7
7 -11 7 -11 1 0 -14 -33 -14 -42 0 -5 7 -8 6 -8 -3 0 -11 -3 -11 -15 -1 -8 7
-15 10 -15 6 0 -4 -12 2 -27 11 -15 10 -30 18 -33 18 -3 0 -4 4 -2 8 1 5 -2 6
-7 3 -5 -4 -14 1 -19 10 -5 9 -12 15 -17 14 -4 -1 -13 9 -20 22 -6 13 -18 22
-26 20 -8 -2 -11 0 -7 3 4 4 2 17 -4 29 -11 20 -10 20 8 6 13 -10 12 -6 -4 12
-15 17 -20 28 -13 33 6 3 9 11 5 16 -3 5 -9 7 -12 5 -4 -2 -7 13 -7 34 0 21 3
36 7 34 8 -5 4 43 -5 52 -10 10 4 34 17 27 6 -3 3 3 -6 14 -20 22 -23 33 -7
33 5 0 7 -5 3 -12 -5 -7 -3 -8 5 -3 9 5 10 10 2 18 -15 15 -14 47 2 47 9 0 9
2 1 8 -15 9 -15 102 0 121 8 11 8 13 -1 7 -10 -5 -13 3 -13 28 0 22 5 36 13
36 9 0 8 3 -2 9 -9 6 -10 10 -2 16 9 5 9 10 0 21 -9 11 -8 18 2 31 10 11 10
14 2 9 -7 -4 -13 -3 -13 1 0 5 6 15 13 22 10 11 9 12 -2 6 -10 -6 -12 1 -7 34
3 23 8 46 11 51 3 5 0 12 -6 16 -8 5 -9 3 -4 -6 5 -9 4 -11 -4 -6 -8 6 -9 12
-2 20 6 7 7 17 3 21 -4 5 -1 5 6 1 7 -4 12 -2 12 5 0 7 3 9 6 6 4 -3 14 -2 24
3 20 11 68 22 93 22 9 -1 17 2 17 6 0 4 41 7 90 7 53 0 90 -4 90 -10z m454
-231 c3 -8 11 -12 17 -8 8 4 9 3 5 -5 -4 -6 0 -14 8 -17 9 -3 16 -10 16 -15 0
-6 9 -19 20 -31 11 -12 20 -28 20 -35 0 -7 4 -13 9 -13 7 0 21 -33 20 -48 0
-1 7 -10 16 -18 13 -13 18 -34 14 -60 0 -4 4 -10 10 -13 6 -4 11 -21 13 -39 1
-18 5 -32 8 -32 4 0 7 -29 12 -135 3 -63 -3 -96 -14 -89 -9 5 -9 2 1 -9 11
-14 11 -20 0 -34 -12 -15 -12 -16 1 -8 12 7 13 6 3 -7 -7 -8 -10 -18 -6 -21 3
-4 1 -7 -6 -7 -7 0 -9 -4 -6 -10 3 -5 3 -16 -2 -22 -4 -7 -9 -24 -11 -38 -2
-14 -7 -26 -13 -28 -5 -2 -9 -10 -9 -18 0 -8 -6 -14 -12 -14 -9 0 -8 -4 2 -10
9 -6 10 -10 3 -10 -12 0 -29 -38 -24 -55 1 -5 0 -7 -4 -3 -9 8 -35 -14 -28
-24 2 -5 0 -8 -6 -8 -5 0 -13 -9 -16 -20 -4 -11 -11 -18 -16 -15 -5 4 -9 1 -9
-5 0 -18 -128 -137 -142 -132 -5 1 -8 -2 -8 -7 0 -6 -27 -23 -60 -39 -33 -16
-58 -31 -55 -34 3 -3 -5 -5 -17 -4 -13 1 -28 -1 -34 -6 -10 -7 -45 -16 -72
-17 -7 -1 -11 -4 -9 -9 3 -4 -29 -7 -71 -7 -43 1 -80 -4 -84 -9 -5 -8 -8 -8
-8 0 0 6 -18 10 -45 9 -24 -1 -42 2 -39 6 3 5 -6 5 -20 -1 -17 -6 -26 -6 -28
2 -2 6 -13 11 -23 12 -11 2 -27 5 -35 8 -8 3 -33 11 -55 18 -22 7 -48 19 -57
27 -9 8 -22 12 -27 8 -6 -3 -11 -2 -11 4 0 6 -12 17 -27 25 -16 8 -50 35 -78
60 -27 25 -53 46 -57 46 -5 0 -8 7 -8 15 0 8 -9 19 -20 25 -11 6 -20 17 -20
25 0 8 -7 15 -16 15 -8 0 -13 4 -10 9 4 5 3 11 -2 13 -13 5 -72 128 -72 149 0
11 -4 18 -9 15 -4 -3 -7 5 -7 17 1 12 -5 31 -13 41 -9 11 -10 16 -3 12 6 -4
12 -2 12 3 0 6 -4 11 -8 11 -9 0 -11 19 -11 145 0 124 2 145 9 145 4 0 7 6 8
13 3 39 7 57 12 57 4 0 7 6 8 13 3 40 7 57 13 57 4 0 15 18 25 40 10 22 22 40
27 40 4 0 6 4 3 8 -2 4 4 19 15 32 10 14 19 21 20 15 0 -5 1 -119 2 -252 0
-134 4 -243 9 -243 4 0 8 -5 8 -11 0 -5 -4 -7 -10 -4 -15 10 -12 -5 6 -22 13
-13 13 -17 2 -24 -9 -6 -10 -9 -1 -9 7 0 10 -7 7 -15 -4 -8 -1 -15 5 -15 6 0
11 -9 11 -20 0 -11 5 -20 10 -20 6 0 10 -5 10 -11 0 -5 -5 -7 -11 -4 -6 4 -5
-2 3 -14 7 -12 16 -21 19 -21 4 0 10 -11 13 -25 4 -14 13 -25 22 -25 8 0 12
-4 9 -10 -3 -5 -1 -10 5 -10 7 0 10 -6 7 -14 -4 -9 3 -16 19 -20 14 -4 22 -10
20 -15 -3 -5 2 -15 11 -22 14 -12 16 -12 8 0 -5 10 -4 12 3 7 7 -4 12 -14 12
-22 0 -8 5 -14 11 -14 7 0 18 -8 26 -17 10 -12 12 -13 8 -3 -4 10 -2 9 8 -2 8
-10 20 -18 26 -18 7 0 10 -4 6 -9 -3 -6 4 -8 15 -6 11 2 20 -1 20 -6 0 -5 8
-9 18 -7 9 2 16 -2 15 -8 -1 -6 9 -10 22 -8 14 1 25 -2 25 -7 0 -6 5 -7 10 -4
5 3 10 2 10 -3 0 -12 38 -23 45 -12 3 4 20 5 37 1 42 -8 60 -7 76 2 7 5 12 4
12 -3 0 -7 9 -6 28 3 15 8 39 13 55 12 15 -1 27 2 27 7 0 4 11 8 24 8 14 0 28
5 31 11 4 5 12 8 18 6 7 -2 22 7 35 20 13 14 29 22 37 19 8 -3 15 -1 15 3 0
14 86 101 99 101 7 0 9 5 6 10 -3 6 1 13 9 16 9 3 14 10 11 14 -3 4 2 10 10
14 8 3 15 12 15 21 0 8 6 15 13 15 8 0 7 4 -3 10 -13 8 -8 14 10 12 3 0 7 11
8 25 1 14 6 31 12 38 5 6 7 15 3 18 -3 4 -1 7 4 7 6 0 10 8 8 18 -1 9 3 23 9
31 9 12 8 13 -4 6 -13 -8 -13 -7 -1 8 9 12 10 17 2 17 -7 0 -9 5 -6 10 4 6 10
24 15 40 7 24 6 28 -8 23 -15 -5 -15 -4 0 13 17 17 17 19 0 38 -9 11 -12 16
-6 13 7 -4 14 2 17 13 3 11 1 18 -3 15 -14 -8 -18 19 -7 40 13 24 17 86 5 79
-4 -3 -8 0 -8 5 0 6 3 11 8 11 4 0 7 18 7 39 0 22 -3 37 -7 34 -5 -2 -8 3 -8
11 0 9 6 16 13 16 8 0 7 4 -3 10 -10 6 -11 10 -2 10 17 0 15 15 -4 34 -10 10
-11 16 -4 16 8 0 10 10 8 25 -3 14 -1 25 3 25 5 0 6 7 3 15 -4 8 -11 12 -17 8
-6 -3 -7 -1 -3 5 10 17 23 15 30 -4z"/>
<path d="M1925 1480 c-3 -5 -1 -10 4 -10 6 0 11 5 11 10 0 6 -2 10 -4 10 -3 0
-8 -4 -11 -10z"/>
</g>
</svg>
